<svg aria-hidden="true" style="position: absolute; width: 0; height: 0; overflow: hidden;" version="1.1" xmlns="http://www.w3.org/2000/svg" xmlns:xlink="http://www.w3.org/1999/xlink">
<defs>
<symbol id="icon-arrow-down-outline" viewBox="0 0 24 24">
<path d="M12 21.312l-7.121-7.121c-1.17-1.17-1.17-3.073 0-4.242 1.094-1.094 2.978-1.138 4.121-0.115v-4.834c0-1.654 1.346-3 3-3s3 1.346 3 3v4.834c1.143-1.023 3.027-0.979 4.121 0.115 1.17 1.169 1.17 3.072 0 4.242l-7.121 7.121zM7 11.070c-0.268 0-0.518 0.104-0.707 0.293-0.391 0.39-0.391 1.023 0 1.414l5.707 5.707 5.707-5.707c0.391-0.391 0.391-1.024 0-1.414-0.379-0.379-1.035-0.379-1.414 0l-3.293 3.293v-9.656c0-0.551-0.448-1-1-1s-1 0.449-1 1v9.656l-3.293-3.293c-0.189-0.189-0.439-0.293-0.707-0.293z"></path>
</symbol>
<symbol id="icon-cancel" viewBox="0 0 32 32">
<path d="M19.524 16l11.964-11.965c0.329-0.329 0.511-0.769 0.511-1.237s-0.182-0.909-0.511-1.238l-1.048-1.048c-0.33-0.33-0.769-0.511-1.238-0.511s-0.908 0.181-1.237 0.511l-11.964 11.964-11.965-11.964c-0.329-0.33-0.769-0.511-1.238-0.511s-0.908 0.181-1.237 0.511l-1.049 1.048c-0.683 0.683-0.683 1.793 0 2.475l11.965 11.965-11.965 11.964c-0.329 0.33-0.511 0.769-0.511 1.238s0.181 0.908 0.511 1.238l1.049 1.048c0.329 0.33 0.769 0.511 1.237 0.511s0.909-0.181 1.238-0.511l11.965-11.964 11.964 11.964c0.33 0.33 0.769 0.511 1.237 0.511h0.001c0.469 0 0.908-0.181 1.238-0.511l1.048-1.048c0.329-0.329 0.511-0.769 0.511-1.238s-0.182-0.908-0.511-1.238l-11.964-11.965z"></path>
</symbol>
<symbol id="icon-menu" viewBox="0 0 32 32">
<path d="M30.4 27.2h-28.8c-0.883 0-1.6 0.717-1.6 1.6s0.717 1.6 1.6 1.6h28.8c0.883 0 1.6-0.717 1.6-1.6s-0.717-1.6-1.6-1.6zM1.6 4.8h28.8c0.883 0 1.6-0.717 1.6-1.6s-0.717-1.6-1.6-1.6h-28.8c-0.883 0-1.6 0.717-1.6 1.6s0.717 1.6 1.6 1.6zM30.4 14.4h-28.8c-0.883 0-1.6 0.717-1.6 1.6s0.717 1.6 1.6 1.6h28.8c0.883 0 1.6-0.717 1.6-1.6s-0.717-1.6-1.6-1.6z"></path>
</symbol>
<symbol id="icon-arrow-right2" viewBox="0 0 32 32">
<path d="M19.414 27.414l10-10c0.781-0.781 0.781-2.047 0-2.828l-10-10c-0.781-0.781-2.047-0.781-2.828 0s-0.781 2.047 0 2.828l6.586 6.586h-19.172c-1.105 0-2 0.895-2 2s0.895 2 2 2h19.172l-6.586 6.586c-0.39 0.39-0.586 0.902-0.586 1.414s0.195 1.024 0.586 1.414c0.781 0.781 2.047 0.781 2.828 0z"></path>
</symbol>
<symbol id="icon-arrow-left2" viewBox="0 0 32 32">
<path d="M12.586 27.414l-10-10c-0.781-0.781-0.781-2.047 0-2.828l10-10c0.781-0.781 2.047-0.781 2.828 0s0.781 2.047 0 2.828l-6.586 6.586h19.172c1.105 0 2 0.895 2 2s-0.895 2-2 2h-19.172l6.586 6.586c0.39 0.39 0.586 0.902 0.586 1.414s-0.195 1.024-0.586 1.414c-0.781 0.781-2.047 0.781-2.828 0z"></path>
</symbol>
</defs>
</svg>
